<svg xmlns="http://www.w3.org/2000/svg" viewBox="0 0 336 336" role="img" aria-labelledby="t">
<title id="t">Chess position after 1.e4 e5 2.Nf3 Nc6 3.Bc4, the Italian Game</title>
<rect x="0" y="0" width="336" height="336" fill="#f5f0e6"/>
<rect x="4" y="4" width="328" height="328" fill="none" stroke="#c9a227" stroke-width="3" rx="4"/>
<rect x="8" y="8" width="40" height="40" fill="#f5f0e6"/>
<rect x="48" y="8" width="40" height="40" fill="#c9b189"/>
<rect x="88" y="8" width="40" height="40" fill="#f5f0e6"/>
<rect x="128" y="8" width="40" height="40" fill="#c9b189"/>
<rect x="168" y="8" width="40" height="40" fill="#f5f0e6"/>
<rect x="208" y="8" width="40" height="40" fill="#c9b189"/>
<rect x="248" y="8" width="40" height="40" fill="#f5f0e6"/>
<rect x="288" y="8" width="40" height="40" fill="#c9b189"/>
<rect x="8" y="48" width="40" height="40" fill="#c9b189"/>
<rect x="48" y="48" width="40" height="40" fill="#f5f0e6"/>
<rect x="88" y="48" width="40" height="40" fill="#c9b189"/>
<rect x="128" y="48" width="40" height="40" fill="#f5f0e6"/>
<rect x="168" y="48" width="40" height="40" fill="#c9b189"/>
<rect x="208" y="48" width="40" height="40" fill="#f5f0e6"/>
<rect x="248" y="48" width="40" height="40" fill="#c9b189"/>
<rect x="288" y="48" width="40" height="40" fill="#f5f0e6"/>
<rect x="8" y="88" width="40" height="40" fill="#f5f0e6"/>
<rect x="48" y="88" width="40" height="40" fill="#c9b189"/>
<rect x="88" y="88" width="40" height="40" fill="#f5f0e6"/>
<rect x="128" y="88" width="40" height="40" fill="#c9b189"/>
<rect x="168" y="88" width="40" height="40" fill="#f5f0e6"/>
<rect x="208" y="88" width="40" height="40" fill="#c9b189"/>
<rect x="248" y="88" width="40" height="40" fill="#f5f0e6"/>
<rect x="288" y="88" width="40" height="40" fill="#c9b189"/>
<rect x="8" y="128" width="40" height="40" fill="#c9b189"/>
<rect x="48" y="128" width="40" height="40" fill="#f5f0e6"/>
<rect x="88" y="128" width="40" height="40" fill="#c9b189"/>
<rect x="128" y="128" width="40" height="40" fill="#f5f0e6"/>
<rect x="168" y="128" width="40" height="40" fill="#c9b189"/>
<rect x="208" y="128" width="40" height="40" fill="#f5f0e6"/>
<rect x="248" y="128" width="40" height="40" fill="#c9b189"/>
<rect x="288" y="128" width="40" height="40" fill="#f5f0e6"/>
<rect x="8" y="168" width="40" height="40" fill="#f5f0e6"/>
<rect x="48" y="168" width="40" height="40" fill="#c9b189"/>
<rect x="88" y="168" width="40" height="40" fill="#f5f0e6"/>
<rect x="128" y="168" width="40" height="40" fill="#c9b189"/>
<rect x="168" y="168" width="40" height="40" fill="#f5f0e6"/>
<rect x="208" y="168" width="40" height="40" fill="#c9b189"/>
<rect x="248" y="168" width="40" height="40" fill="#f5f0e6"/>
<rect x="288" y="168" width="40" height="40" fill="#c9b189"/>
<rect x="8" y="208" width="40" height="40" fill="#c9b189"/>
<rect x="48" y="208" width="40" height="40" fill="#f5f0e6"/>
<rect x="88" y="208" width="40" height="40" fill="#c9b189"/>
<rect x="128" y="208" width="40" height="40" fill="#f5f0e6"/>
<rect x="168" y="208" width="40" height="40" fill="#c9b189"/>
<rect x="208" y="208" width="40" height="40" fill="#f5f0e6"/>
<rect x="248" y="208" width="40" height="40" fill="#c9b189"/>
<rect x="288" y="208" width="40" height="40" fill="#f5f0e6"/>
<rect x="8" y="248" width="40" height="40" fill="#f5f0e6"/>
<rect x="48" y="248" width="40" height="40" fill="#c9b189"/>
<rect x="88" y="248" width="40" height="40" fill="#f5f0e6"/>
<rect x="128" y="248" width="40" height="40" fill="#c9b189"/>
<rect x="168" y="248" width="40" height="40" fill="#f5f0e6"/>
<rect x="208" y="248" width="40" height="40" fill="#c9b189"/>
<rect x="248" y="248" width="40" height="40" fill="#f5f0e6"/>
<rect x="288" y="248" width="40" height="40" fill="#c9b189"/>
<rect x="8" y="288" width="40" height="40" fill="#c9b189"/>
<rect x="48" y="288" width="40" height="40" fill="#f5f0e6"/>
<rect x="88" y="288" width="40" height="40" fill="#c9b189"/>
<rect x="128" y="288" width="40" height="40" fill="#f5f0e6"/>
<rect x="168" y="288" width="40" height="40" fill="#c9b189"/>
<rect x="208" y="288" width="40" height="40" fill="#f5f0e6"/>
<rect x="248" y="288" width="40" height="40" fill="#c9b189"/>
<rect x="288" y="288" width="40" height="40" fill="#f5f0e6"/>
<rect x="8" y="8" width="320" height="320" fill="none" stroke="#1b2a4a" stroke-width="2"/>
<text x="28.0" y="322.0" font-size="30" text-anchor="middle" font-family="Arial, sans-serif" fill="#fffdf8" stroke="#1b2a4a" stroke-width="1.2">♖</text>
<text x="68.0" y="322.0" font-size="30" text-anchor="middle" font-family="Arial, sans-serif" fill="#fffdf8" stroke="#1b2a4a" stroke-width="1.2">♘</text>
<text x="108.0" y="322.0" font-size="30" text-anchor="middle" font-family="Arial, sans-serif" fill="#fffdf8" stroke="#1b2a4a" stroke-width="1.2">♗</text>
<text x="148.0" y="322.0" font-size="30" text-anchor="middle" font-family="Arial, sans-serif" fill="#fffdf8" stroke="#1b2a4a" stroke-width="1.2">♕</text>
<text x="188.0" y="322.0" font-size="30" text-anchor="middle" font-family="Arial, sans-serif" fill="#fffdf8" stroke="#1b2a4a" stroke-width="1.2">♔</text>
<text x="308.0" y="322.0" font-size="30" text-anchor="middle" font-family="Arial, sans-serif" fill="#fffdf8" stroke="#1b2a4a" stroke-width="1.2">♖</text>
<text x="28.0" y="282.0" font-size="30" text-anchor="middle" font-family="Arial, sans-serif" fill="#fffdf8" stroke="#1b2a4a" stroke-width="1.2">♙</text>
<text x="68.0" y="282.0" font-size="30" text-anchor="middle" font-family="Arial, sans-serif" fill="#fffdf8" stroke="#1b2a4a" stroke-width="1.2">♙</text>
<text x="108.0" y="282.0" font-size="30" text-anchor="middle" font-family="Arial, sans-serif" fill="#fffdf8" stroke="#1b2a4a" stroke-width="1.2">♙</text>
<text x="148.0" y="282.0" font-size="30" text-anchor="middle" font-family="Arial, sans-serif" fill="#fffdf8" stroke="#1b2a4a" stroke-width="1.2">♙</text>
<text x="228.0" y="282.0" font-size="30" text-anchor="middle" font-family="Arial, sans-serif" fill="#fffdf8" stroke="#1b2a4a" stroke-width="1.2">♙</text>
<text x="268.0" y="282.0" font-size="30" text-anchor="middle" font-family="Arial, sans-serif" fill="#fffdf8" stroke="#1b2a4a" stroke-width="1.2">♙</text>
<text x="308.0" y="282.0" font-size="30" text-anchor="middle" font-family="Arial, sans-serif" fill="#fffdf8" stroke="#1b2a4a" stroke-width="1.2">♙</text>
<text x="228.0" y="242.0" font-size="30" text-anchor="middle" font-family="Arial, sans-serif" fill="#fffdf8" stroke="#1b2a4a" stroke-width="1.2">♘</text>
<text x="108.0" y="202.0" font-size="30" text-anchor="middle" font-family="Arial, sans-serif" fill="#fffdf8" stroke="#1b2a4a" stroke-width="1.2">♗</text>
<text x="188.0" y="202.0" font-size="30" text-anchor="middle" font-family="Arial, sans-serif" fill="#fffdf8" stroke="#1b2a4a" stroke-width="1.2">♙</text>
<text x="28.0" y="42.0" font-size="30" text-anchor="middle" font-family="Arial, sans-serif" fill="#1b2a4a" >♜</text>
<text x="108.0" y="42.0" font-size="30" text-anchor="middle" font-family="Arial, sans-serif" fill="#1b2a4a" >♝</text>
<text x="148.0" y="42.0" font-size="30" text-anchor="middle" font-family="Arial, sans-serif" fill="#1b2a4a" >♛</text>
<text x="188.0" y="42.0" font-size="30" text-anchor="middle" font-family="Arial, sans-serif" fill="#1b2a4a" >♚</text>
<text x="228.0" y="42.0" font-size="30" text-anchor="middle" font-family="Arial, sans-serif" fill="#1b2a4a" >♝</text>
<text x="268.0" y="42.0" font-size="30" text-anchor="middle" font-family="Arial, sans-serif" fill="#1b2a4a" >♞</text>
<text x="308.0" y="42.0" font-size="30" text-anchor="middle" font-family="Arial, sans-serif" fill="#1b2a4a" >♜</text>
<text x="28.0" y="82.0" font-size="30" text-anchor="middle" font-family="Arial, sans-serif" fill="#1b2a4a" >♟</text>
<text x="68.0" y="82.0" font-size="30" text-anchor="middle" font-family="Arial, sans-serif" fill="#1b2a4a" >♟</text>
<text x="108.0" y="82.0" font-size="30" text-anchor="middle" font-family="Arial, sans-serif" fill="#1b2a4a" >♟</text>
<text x="148.0" y="82.0" font-size="30" text-anchor="middle" font-family="Arial, sans-serif" fill="#1b2a4a" >♟</text>
<text x="228.0" y="82.0" font-size="30" text-anchor="middle" font-family="Arial, sans-serif" fill="#1b2a4a" >♟</text>
<text x="268.0" y="82.0" font-size="30" text-anchor="middle" font-family="Arial, sans-serif" fill="#1b2a4a" >♟</text>
<text x="308.0" y="82.0" font-size="30" text-anchor="middle" font-family="Arial, sans-serif" fill="#1b2a4a" >♟</text>
<text x="108.0" y="122.0" font-size="30" text-anchor="middle" font-family="Arial, sans-serif" fill="#1b2a4a" >♞</text>
<text x="188.0" y="162.0" font-size="30" text-anchor="middle" font-family="Arial, sans-serif" fill="#1b2a4a" >♟</text>
</svg>